<?xml version="1.0" encoding="utf-8"?><svg viewBox="0 0 180 38" xmlns="http://www.w3.org/2000/svg" xmlns:xlink="http://www.w3.org/1999/xlink"><style>:root>svg{display:none}:root>svg:target{display:block}</style><svg fill="none" viewBox="0 0 6 11" id="arrow" xmlns="http://www.w3.org/2000/svg">
    <path d="M.17 9.95a.616.616 0 0 0 .88.86L5.82 5.9l-.44-.43.44.43c.24-.24.23-.63-.01-.87-.01-.01-.02-.01-.02-.02L1.05.18a.615.615 0 0 0-.88.86l4.35 4.44L.17 9.95Z" fill="#607CE6" fill-rule="evenodd"/>
</svg><svg fill="none" viewBox="0 0 180 38" id="logo" xmlns="http://www.w3.org/2000/svg">
    <path fill-rule="evenodd" clip-rule="evenodd" d="M0 0h39.447v38H0V0Zm4.93 32.759V5.24h29.586V32.76h-11.71v-6.552h-6.164v6.552H4.93Zm102.888-3.65c-2.004-.047-3.611-.75-4.82-2.111-1.209-1.361-1.894-3.181-2.053-5.462-.088-1.126-.004-2.449.252-3.97.256-1.529.711-2.936 1.364-4.222.653-1.286 1.47-2.355 2.45-3.21 1.642-1.435 3.531-2.13 5.667-2.083 1.316.029 2.463.352 3.443.972.989.61 1.779 1.492 2.37 2.646.592 1.154.936 2.468 1.033 3.941.071 1.042.009 2.229-.185 3.562a15.071 15.071 0 0 1-1.046 3.8 11.618 11.618 0 0 1-1.96 3.181 9.161 9.161 0 0 1-2.847 2.196c-1.086.535-2.309.788-3.668.76Zm5.164-13.541c-.088-2.346-.944-3.566-2.569-3.66-1.253-.065-2.291.465-3.112 1.59-.821 1.118-1.364 2.77-1.628 4.956-.168 1.35-.23 2.397-.186 3.139.088 2.383.954 3.608 2.596 3.673 1.077.057 2.004-.352 2.781-1.224.776-.882 1.337-2.159 1.681-3.829.345-1.68.49-3.228.437-4.645Zm-47.513 13.26h4.528l3.35-20.495h-15.77l-3.338 20.495h4.53l2.727-16.68h6.687l-2.714 16.68ZM96.167 8.333h-4.648l-8.647 12.654 2.079-12.654h-4.542l-3.35 20.495h4.661l8.647-12.64-2.08 12.64h4.543l3.337-20.495Zm36.939 20.495h4.503l3.35-20.495h-4.516l-1.324 8.136h-6.621l1.338-8.136h-4.542l-3.338 20.495h4.529l1.404-8.559h6.608l-1.391 8.559Zm24.309-8.685h-7.085l-.807 4.884h8.382l-.622 3.8h-12.911l3.337-20.494h12.937l-.622 3.815h-8.396l-.715 4.32h7.098l-.596 3.675Zm10.14 8.685 1.138-6.954 3.179.014c1.474 0 2.802-.267 3.985-.802 1.192-.535 2.15-1.31 2.874-2.323.724-1.013 1.139-2.21 1.245-3.59.149-2.017-.393-3.659-1.629-4.926-1.227-1.267-2.913-1.9-5.059-1.9l-6.925-.014-3.337 20.495h4.529Zm4.489-10.74-2.728-.029.966-5.911 3.165.014c.557.037 1.002.225 1.338.563.344.328.551.779.622 1.351.124 1.117-.119 2.06-.728 2.83-.609.76-1.488 1.153-2.635 1.182Z" fill="#607CE6"/>
</svg><svg fill="none" viewBox="0 0 180 38" id="logo-footer" xmlns="http://www.w3.org/2000/svg">
    <path d="M0 0h39.44v38H0V0Zm4.93 32.75V5.24h29.58v27.51H22.8V26.2h-6.16v6.55H4.93Zm102.88-3.65c-2-.04-3.61-.75-4.82-2.11-1.21-1.36-1.89-3.18-2.05-5.46-.09-1.12 0-2.45.25-3.97.26-1.53.71-2.94 1.37-4.22.65-1.29 1.47-2.36 2.45-3.21 1.64-1.44 3.53-2.13 5.66-2.08 1.32.02 2.47.35 3.45.97.99.61 1.78 1.49 2.37 2.64.59 1.16.93 2.47 1.03 3.95.07 1.04.01 2.22-.19 3.56-.18 1.32-.53 2.59-1.04 3.8-.5 1.2-1.16 2.26-1.96 3.18-.8.92-1.75 1.65-2.85 2.19-1.08.54-2.31.79-3.67.76Zm5.17-13.54c-.09-2.34-.95-3.56-2.57-3.66-1.25-.06-2.29.47-3.11 1.59-.82 1.12-1.37 2.77-1.63 4.96-.17 1.35-.23 2.4-.19 3.14.09 2.38.96 3.61 2.6 3.67 1.08.06 2-.35 2.78-1.22.78-.89 1.34-2.16 1.68-3.83.35-1.68.49-3.23.44-4.65ZM65.46 28.82h4.53l3.35-20.49H57.57l-3.34 20.49h4.53l2.73-16.68h6.69l-2.72 16.68Zm30.7-20.49h-4.65l-8.64 12.65 2.08-12.65H80.4l-3.35 20.49h4.67l8.64-12.64-2.08 12.64h4.54l3.34-20.49Zm36.94 20.49h4.5l3.35-20.49h-4.51l-1.33 8.13h-6.62l1.34-8.13h-4.54l-3.34 20.49h4.53l1.4-8.56h6.61l-1.39 8.56Zm24.31-8.68h-7.08l-.81 4.88h8.38l-.62 3.8h-12.91l3.33-20.49h12.94l-.62 3.81h-8.4l-.71 4.32h7.1l-.6 3.68Zm10.14 8.68 1.14-6.95 3.18.01c1.47 0 2.8-.26 3.98-.8a7.006 7.006 0 0 0 2.88-2.32c.72-1.02 1.14-2.21 1.24-3.59.15-2.02-.39-3.66-1.63-4.93-1.22-1.26-2.91-1.9-5.06-1.9l-6.92-.01-3.34 20.49h4.53Zm4.49-10.74-2.73-.03.97-5.91 3.16.02c.56.03 1 .22 1.34.56.34.33.55.78.62 1.35.13 1.12-.12 2.06-.73 2.83-.6.76-1.48 1.15-2.63 1.18Z" fill="#FFF" fill-rule="evenodd"/>
</svg><svg fill="none" viewBox="0 0 16 16" id="phone" xmlns="http://www.w3.org/2000/svg">
    <g clip-path="url(#da)">
        <path d="M12.2 10c-1.1-.1-1.7 1.4-2.5 1.8C8.4 12.5 6 10 6 10S3.5 7.6 4.1 6.3c.5-.8 2-1.4 1.9-2.5-.1-1-2.3-4.6-3.4-3.6C.2 2.4 0 3.3 0 5.1c-.1 3.1 3.9 7 3.9 7 .4.4 3.9 4 7 3.9 1.8 0 2.7-.2 4.9-2.6 1-1.1-2.5-3.3-3.6-3.4Z" fill="#607CE6"/>
    </g>
    <defs>
        <clipPath id="da">
            <path fill="#fff" d="M0 0h16v16H0z"/>
        </clipPath>
    </defs>
</svg></svg>